<?xml version="1.0" encoding="UTF-8"?>
<svg version="1.1" viewBox="0 0 77.38 77.407" xmlns="http://www.w3.org/2000/svg">
  <defs>
    <linearGradient id="a" x1="143.5" x2="106.25" y1="22.902" y2="22.402" gradientTransform="matrix(.4843 0 0 .4843 310.1 520.1)" gradientUnits="userSpaceOnUse">
      <stop stop-color="#f00" offset="0"/>
      <stop stop-color="#f60" offset="1"/>
    </linearGradient>
    <linearGradient id="c" x1="15.618" x2="57.681" y1="64.541" y2="13.216" gradientUnits="userSpaceOnUse">
      <stop stop-color="#4c3b2e" offset="0"/>
      <stop stop-color="#382719" offset=".14261"/>
      <stop stop-color="#3a261d" offset=".2503"/>
      <stop stop-color="#5e3f28" offset=".37587"/>
      <stop stop-color="#67472d" offset=".54913"/>
      <stop stop-color="#4b3223" offset=".73749"/>
      <stop stop-color="#1f2123" offset="1"/>
    </linearGradient>
    <filter id="e" x="0" y="0" width="1" height="1" color-interpolation-filters="sRGB">
      <feTurbulence baseFrequency="0.037" numOctaves="3" result="result0"/>
      <feSpecularLighting result="result1" specularExponent="24.29999924" surfaceScale="2">
        <feDistantLight azimuth="225" elevation="45"/>
      </feSpecularLighting>
      <feDiffuseLighting diffuseConstant="1.21000004" in="result0" result="result2" surfaceScale="3">
        <feDistantLight azimuth="225" elevation="42"/>
      </feDiffuseLighting>
      <feBlend in2="SourceGraphic" mode="multiply" result="result91"/>
      <feComposite in="result1" in2="result91" k2="1" k3="1" operator="arithmetic" result="result92"/>
      <feComposite in2="SourceAlpha" operator="in" result="result2"/>
    </filter>
    <linearGradient id="b" x1="61.45" x2="13.028" y1="66.66" y2="2.6565" gradientTransform="matrix(.95836 0 0 .95836 336.09 493.35)" gradientUnits="userSpaceOnUse">
      <stop stop-color="#eaeaeb" offset="0"/>
      <stop stop-color="#a3a3a3" offset=".33129"/>
      <stop stop-color="#f2f2f3" offset=".55639"/>
      <stop stop-color="#979797" offset=".6564"/>
      <stop stop-color="#858585" offset=".7579"/>
      <stop stop-color="#f0f3f5" offset=".84996"/>
      <stop stop-color="#a4a4a4" offset="1"/>
    </linearGradient>
    <filter id="d" x="0" y="0" width="1" height="1" color-interpolation-filters="sRGB">
      <feTurbulence baseFrequency="0.037" numOctaves="3" result="result0"/>
      <feSpecularLighting result="result1" specularExponent="24.29999924" surfaceScale="2">
        <feDistantLight azimuth="225" elevation="45"/>
      </feSpecularLighting>
      <feDiffuseLighting diffuseConstant="1.21000004" in="result0" result="result2" surfaceScale="3">
        <feDistantLight azimuth="225" elevation="42"/>
      </feDiffuseLighting>
      <feBlend in2="SourceGraphic" mode="multiply" result="result91"/>
      <feComposite in="result1" in2="result91" k2="1" k3="1" operator="arithmetic" result="result92"/>
      <feComposite in2="SourceAlpha" operator="in" result="result2"/>
    </filter>
  </defs>
  <g transform="translate(-336.32 -493.66)">
    <g transform="translate(1.1636 1.2696)">
      <text x="355.98264" y="531.79266" fill="url(#a)" font-family="StoneSerITCStd Medium" font-size="19.372px" letter-spacing="0px" word-spacing="0px" style="line-height:125%" xml:space="preserve"><tspan x="355.98264" y="531.79266" fill="url(#a)" font-size="2.9058px">Created by Falzar FZ</tspan></text>
      <path transform="matrix(1.0518 0 0 1.0562 335.55 492.59)" d="m72.952 36.456c0 20.103-16.365 36.4-36.552 36.4-20.187 0-36.552-16.297-36.552-36.4 0-20.103 16.365-36.4 36.552-36.4 20.187 0 36.552 16.297 36.552 36.4z" fill="url(#c)" stroke-miterlimit="4.1" stroke-width="0"/>
      <path transform="matrix(1.0518 0 0 1.0562 335.55 492.59)" d="m72.952 36.456c0 20.103-16.365 36.4-36.552 36.4-20.187 0-36.552-16.297-36.552-36.4 0-20.103 16.365-36.4 36.552-36.4 20.187 0 36.552 16.297 36.552 36.4z" fill="#4d4d4d" filter="url(#e)" opacity=".12" stroke-miterlimit="4.1" stroke-width="0"/>
      <path d="m370.02 531.64 1.9816-10.784-25.236 19.355 24.834 17.499-1.5424-10.295s21.205 3.6759 28.74-12.856c2.8867-11.91 0.56068-15.958-7.0464-22.086 1.0056 9.2757-2.7091 17.86-9.6789 19.164-6.6624 1.1059-12.052 3e-3 -12.052 3e-3z" fill="#1d1305"/>
      <path d="m368.28 529.93 1.9816-10.784-25.236 19.355 24.834 17.499-1.5562-10.322s21.219 3.7035 28.754-12.828c2.8867-11.91 0.56068-15.958-7.0464-22.086 1.0056 9.2757-2.7091 17.86-9.6789 19.164-6.6624 1.1059-12.052 3e-3 -12.052 3e-3z" fill="url(#b)"/>
      <path d="m374.7 497.43c-12.129 0.0669-23.861 7.0606-29.78 17.624-6.3508 10.939-5.9581 25.394 0.92797 35.998 4.0916 6.3545 10.271 11.378 17.405 13.932 7.1819 2.7528 15.265 2.8246 22.573 0.47992 9.5876-2.9676 17.594-10.432 21.533-19.628 3.6637-8.7544 3.6214-19.034-0.28547-27.703-4.9203-11.446-16.456-19.61-28.86-20.582-1.1683-0.0995-2.341-0.1412-3.5134-0.12121zm0.55486 4.106c10.183-0.10076 20.146 5.32 25.662 13.847 6.4825 9.6115 6.7371 22.967 0.62224 32.817-4.4531 7.3539-12.047 12.744-20.552 14.291-2.8238 0.4724-5.7323 0.58755-8.5875 0.43044-9.7482-0.82108-18.777-6.6954-23.7-15.077-3.092-5.1753-4.5147-11.26-4.1339-17.278 0.4047-11.3 7.7489-21.835 18.062-26.343 3.9489-1.7668 8.2898-2.6933 12.628-2.6876z" fill="#070506"/>
      <path d="m373.31 496.24c-12.129 0.0669-23.861 7.0605-29.78 17.624-6.3508 10.939-5.9581 25.394 0.92797 35.998 4.0916 6.3545 10.271 11.378 17.405 13.932 7.1819 2.7528 15.265 2.8246 22.573 0.47992 9.5876-2.9676 17.594-10.432 21.533-19.628 3.6637-8.7544 3.6214-19.034-0.28546-27.703-4.9203-11.446-16.456-19.61-28.86-20.582-1.1683-0.0995-2.341-0.1412-3.5135-0.12121zm0.55487 4.106c10.183-0.10077 20.146 5.32 25.662 13.847 6.4825 9.6115 6.7371 22.967 0.62225 32.817-4.4531 7.3539-12.047 12.744-20.552 14.291-2.8238 0.4724-5.7323 0.58755-8.5875 0.43044-9.7482-0.82108-18.777-6.6954-23.7-15.077-3.092-5.1753-4.5147-11.26-4.1339-17.278 0.40469-11.3 7.7489-21.835 18.062-26.343 3.9489-1.7668 8.2898-2.6933 12.628-2.6876z" fill="#d2cfc9"/>
      <path d="m368.28 529.93 1.9816-10.784-25.236 19.355 24.834 17.499-1.5562-10.322s21.219 3.7035 28.754-12.828c2.8867-11.91 0.56068-15.958-7.0464-22.086 1.0056 9.2757-2.7091 17.86-9.6789 19.164-6.6624 1.1059-12.052 3e-3 -12.052 3e-3z" fill="#4d4d4d" filter="url(#d)" opacity=".07"/>
    </g>
  </g>
</svg>
