<?xml version="1.0" encoding="UTF-8"?>
<svg version="1.1" viewBox="0 0 77.407 77.407" xmlns="http://www.w3.org/2000/svg">
  <defs>
    <linearGradient id="c" x1="9.6336" x2="57.681" y1="56.496" y2="13.216" gradientUnits="userSpaceOnUse">
      <stop stop-color="#33281f" offset="0"/>
      <stop stop-color="#1e150e" offset=".14261"/>
      <stop stop-color="#281a13" offset=".37457"/>
      <stop stop-color="#442d1d" offset=".61609"/>
      <stop stop-color="#493220" offset=".75774"/>
      <stop stop-color="#422c1f" offset=".86731"/>
      <stop stop-color="#1f2123" offset="1"/>
    </linearGradient>
    <linearGradient id="a" x1="143.5" x2="106.25" y1="22.902" y2="22.402" gradientTransform="matrix(.4843 0 0 .4843 310.1 520.1)" gradientUnits="userSpaceOnUse">
      <stop stop-color="#f00" offset="0"/>
      <stop stop-color="#f60" offset="1"/>
    </linearGradient>
    <linearGradient id="b" x1="62.842" x2="12.979" y1="10.666" y2="61.406" gradientUnits="userSpaceOnUse">
      <stop stop-color="#eaeaeb" offset="0"/>
      <stop stop-color="#a3a3a3" offset=".16934"/>
      <stop stop-color="#d4d4d4" offset=".31995"/>
      <stop stop-color="#a4a4a4" offset=".49711"/>
      <stop stop-color="#ababab" offset=".61296"/>
      <stop stop-color="#f0f3f5" offset=".8282"/>
      <stop stop-color="#a4a4a4" offset="1"/>
    </linearGradient>
    <filter id="d" x="0" y="0" width="1" height="1" color-interpolation-filters="sRGB">
      <feTurbulence baseFrequency="0.037" numOctaves="3" result="result0"/>
      <feSpecularLighting result="result1" specularExponent="24.29999924" surfaceScale="2">
        <feDistantLight azimuth="225" elevation="45"/>
      </feSpecularLighting>
      <feDiffuseLighting diffuseConstant="1.21000004" in="result0" result="result2" surfaceScale="3">
        <feDistantLight azimuth="225" elevation="42"/>
      </feDiffuseLighting>
      <feBlend in2="SourceGraphic" mode="multiply" result="result91"/>
      <feComposite in="result1" in2="result91" k2="1" k3="1" operator="arithmetic" result="result92"/>
      <feComposite in2="SourceAlpha" operator="in" result="result2"/>
    </filter>
    <filter id="e" x="0" y="0" width="1" height="1" color-interpolation-filters="sRGB">
      <feTurbulence baseFrequency="0.037" numOctaves="3" result="result0"/>
      <feSpecularLighting result="result1" specularExponent="24.3" surfaceScale="2">
        <feDistantLight azimuth="225" elevation="45"/>
      </feSpecularLighting>
      <feDiffuseLighting diffuseConstant="1.21" in="result0" result="result2" surfaceScale="3">
        <feDistantLight azimuth="225" elevation="42"/>
      </feDiffuseLighting>
      <feBlend in2="SourceGraphic" mode="multiply" result="result91"/>
      <feComposite in="result1" in2="result91" k2="1" k3="1" operator="arithmetic" result="result92"/>
      <feComposite in2="SourceAlpha" operator="in" result="result2"/>
    </filter>
  </defs>
  <g transform="translate(-336.29 -493.66)">
    <g transform="translate(1.1636 1.2696)">
      <g>
        <text x="355.98264" y="531.79266" fill="url(#a)" font-family="StoneSerITCStd Medium" font-size="19.372px" letter-spacing="0px" word-spacing="0px" style="line-height:125%" xml:space="preserve"><tspan x="355.98264" y="531.79266" fill="url(#a)" font-size="2.9058px">Created by Falzar FZ</tspan></text>
        <path transform="matrix(1.0518 0 0 1.0562 335.55 492.59)" d="m72.952 36.456c0 20.103-16.365 36.4-36.552 36.4-20.187 0-36.552-16.297-36.552-36.4 0-20.103 16.365-36.4 36.552-36.4 20.187 0 36.552 16.297 36.552 36.4z" fill="url(#c)" stroke-miterlimit="4.1" stroke-width="0"/>
        <path transform="matrix(1.0518 0 0 1.0562 335.55 492.59)" d="m72.952 36.456a36.552 36.4 0 1 1-73.104 0 36.552 36.4 0 1 1 73.104 0z" fill="#666" filter="url(#e)" opacity=".12" stroke-miterlimit="4.1" stroke-width="0"/>
        <path d="m374.64 497.12c-12.129 0.0669-23.862 7.061-29.781 17.625-6.3508 10.939-5.9485 25.396 0.9375 36 4.0916 6.3545 10.272 11.383 17.406 13.938 7.1819 2.7528 15.255 2.8447 22.562 0.5 9.5876-2.9676 17.592-10.46 21.531-19.656 3.6637-8.7544 3.6256-19.018-0.28125-27.688-4.9203-11.446-16.47-19.621-28.875-20.594-1.1683-0.0995-2.3276-0.14499-3.5-0.125zm-5.6875 4.7812v11.656 12.375c-7.4529 0.28948-14.918 0.15676-22.375 0.15625-0.50171-0.0515-1.0653 0.0182-1.5938-0.0312 1.8261-9.636 8.579-18.184 17.594-22.125 2.0415-0.91341 4.1785-1.5797 6.375-2.0312zm12.656 0c7.7958 1.6825 14.906 6.4722 19.25 13.188 2.1807 3.2333 3.6405 6.8827 4.4062 10.688-7.9646 0.12012-15.91 0.17395-23.875 0.25 0.0764-8.0392 0.096-16.086 0.21875-24.125zm16.938 36.25c2.2416 0.0101 4.4849-2e-3 6.7188 0.0625-0.6885 3.4164-1.9336 6.7113-3.7812 9.6875-4.3491 7.1822-11.705 12.471-19.969 14.156-0.19934-3.1882-0.0453-6.4289-0.0937-9.625 0.0164-4.7541 0.0478-9.4958 0.0625-14.25 5.6883-0.0136 11.374-0.0323 17.062-0.0312zm-41.812 0.0937c4.0732-1e-3 8.1461 0.0117 12.219 0v23.875c-8.414-1.7407-15.967-7.1646-20.312-14.562-1.701-2.8472-2.8942-5.9836-3.5625-9.2188 3.8852-0.0704 7.7701-0.0926 11.656-0.0937z" fill="#070506"/>
        <path transform="translate(335.15 492.39)" d="m38.156 3.8438c-12.129 0.0669-23.862 7.061-29.781 17.625-6.3508 10.939-5.9485 25.396 0.9375 36 4.0916 6.3545 10.272 11.383 17.406 13.938 7.1819 2.7528 15.255 2.8447 22.562 0.5 9.5876-2.9676 17.592-10.46 21.531-19.656 3.6637-8.7544 3.6256-19.018-0.28125-27.688-4.9203-11.446-16.47-19.621-28.875-20.594-1.1683-0.0995-2.3276-0.14499-3.5-0.125zm-5.6875 4.7812v11.656 12.375c-7.4529 0.28948-14.918 0.15676-22.375 0.15625-0.50171-0.0515-1.0653 0.0182-1.5938-0.03125 1.8261-9.636 8.579-18.184 17.594-22.125 2.0415-0.91341 4.1785-1.5797 6.375-2.0312zm12.656 0c7.7957 1.6825 14.906 6.4722 19.25 13.188 2.1807 3.2333 3.6405 6.8827 4.4062 10.688-7.9646 0.12012-15.91 0.17395-23.875 0.25 0.07642-8.0392 0.096-16.086 0.21875-24.125zm16.938 36.25c2.2416 0.01012 4.4849-0.0016 6.7188 0.0625-0.6885 3.4164-1.9336 6.7113-3.7812 9.6875-4.3491 7.1822-11.705 12.471-19.969 14.156-0.19934-3.1882-0.045276-6.4289-0.09375-9.625 0.0164-4.7541 0.0478-9.4958 0.0625-14.25 5.6883-0.0136 11.374-0.03235 17.062-0.03125zm-41.812 0.09375c4.0732-0.0012 8.1461 0.0117 12.219 0v23.875c-8.414-1.7407-15.967-7.1647-20.312-14.562-1.701-2.8471-2.8942-5.9836-3.5625-9.2188 3.8852-0.070376 7.7701-0.092627 11.656-0.09375z" fill="url(#b)"/>
        <path d="m373.31 496.23c-12.129 0.0669-23.862 7.061-29.781 17.625-6.3508 10.939-5.9485 25.396 0.9375 36 4.0916 6.3545 10.272 11.383 17.406 13.938 7.1819 2.7528 15.255 2.8447 22.562 0.5 9.5876-2.9676 17.592-10.46 21.531-19.656 3.6637-8.7544 3.6256-19.018-0.28125-27.688-4.9203-11.446-16.47-19.621-28.875-20.594-1.1683-0.0995-2.3276-0.14499-3.5-0.125zm-5.6875 4.7812v11.656 12.375c-7.4529 0.28948-14.918 0.15676-22.375 0.15625-0.50171-0.0515-1.0653 0.0182-1.5938-0.0312 1.8261-9.636 8.579-18.184 17.594-22.125 2.0415-0.91341 4.1785-1.5797 6.375-2.0312zm12.656 0c7.7958 1.6825 14.906 6.4722 19.25 13.188 2.1807 3.2333 3.6405 6.8827 4.4062 10.688-7.9646 0.12012-15.91 0.17395-23.875 0.25 0.0764-8.0392 0.096-16.086 0.21875-24.125zm16.938 36.25c2.2416 0.0101 4.4849-2e-3 6.7188 0.0625-0.6885 3.4164-1.9336 6.7113-3.7812 9.6875-4.3491 7.1822-11.705 12.471-19.969 14.156-0.19934-3.1882-0.0453-6.4289-0.0937-9.625 0.0164-4.7541 0.0478-9.4958 0.0625-14.25 5.6883-0.0136 11.374-0.0323 17.062-0.0312zm-41.812 0.0937c4.0732-1e-3 8.1461 0.0117 12.219 0v23.875c-8.414-1.7407-15.967-7.1646-20.312-14.562-1.701-2.8472-2.8942-5.9836-3.5625-9.2188 3.8852-0.0704 7.7701-0.0926 11.656-0.0937z" fill="#666" filter="url(#d)" opacity=".08"/>
      </g>
    </g>
  </g>
</svg>
