<?xml version="1.0" encoding="UTF-8"?>
<svg version="1.1" viewBox="0 0 77.407 77.407" xmlns="http://www.w3.org/2000/svg">
  <defs>
    <linearGradient id="a" x1="143.5" x2="106.25" y1="22.902" y2="22.402" gradientTransform="matrix(.4843 0 0 .4843 310.1 520.1)" gradientUnits="userSpaceOnUse">
      <stop stop-color="#f00" offset="0"/>
      <stop stop-color="#f60" offset="1"/>
    </linearGradient>
    <linearGradient id="c" x1="21.119" x2="57.681" y1="66.648" y2="13.216" gradientUnits="userSpaceOnUse">
      <stop stop-color="#3f3126" offset="0"/>
      <stop stop-color="#1a120c" offset=".25346"/>
      <stop stop-color="#211710" offset=".47455"/>
      <stop stop-color="#523723" offset=".62176"/>
      <stop stop-color="#493122" offset=".72569"/>
      <stop stop-color="#4b3223" offset=".84443"/>
      <stop stop-color="#1f2123" offset="1"/>
    </linearGradient>
    <linearGradient id="b" x1="5.9798" x2="67.667" y1="55.566" y2="18.743" gradientTransform="matrix(.93345 0 0 .93125 337.88 495.24)" gradientUnits="userSpaceOnUse">
      <stop stop-color="#eaeaeb" offset="0"/>
      <stop stop-color="#a3a3a3" offset=".17827"/>
      <stop stop-color="#dad9d9" offset=".37304"/>
      <stop stop-color="#979797" offset=".49057"/>
      <stop stop-color="#858585" offset=".61296"/>
      <stop stop-color="#f0f3f5" offset=".8282"/>
      <stop stop-color="#a4a4a4" offset="1"/>
    </linearGradient>
    <filter id="d" x="0" y="0" width="1" height="1" color-interpolation-filters="sRGB">
      <feTurbulence baseFrequency="0.037" numOctaves="3" result="result0"/>
      <feSpecularLighting result="result1" specularExponent="24.29999924" surfaceScale="2">
        <feDistantLight azimuth="225" elevation="45"/>
      </feSpecularLighting>
      <feDiffuseLighting diffuseConstant="1.21000004" in="result0" result="result2" surfaceScale="3">
        <feDistantLight azimuth="225" elevation="42"/>
      </feDiffuseLighting>
      <feBlend in2="SourceGraphic" mode="multiply" result="result91"/>
      <feComposite in="result1" in2="result91" k2="1" k3="1" operator="arithmetic" result="result92"/>
      <feComposite in2="SourceAlpha" operator="in" result="result2"/>
    </filter>
    <filter id="e" x="0" y="0" width="1" height="1" color-interpolation-filters="sRGB">
      <feTurbulence baseFrequency="0.037" numOctaves="3" result="result0"/>
      <feSpecularLighting result="result1" specularExponent="24.3" surfaceScale="2">
        <feDistantLight azimuth="225" elevation="45"/>
      </feSpecularLighting>
      <feDiffuseLighting diffuseConstant="1.21" in="result0" result="result2" surfaceScale="3">
        <feDistantLight azimuth="225" elevation="42"/>
      </feDiffuseLighting>
      <feBlend in2="SourceGraphic" mode="multiply" result="result91"/>
      <feComposite in="result1" in2="result91" k2="1" k3="1" operator="arithmetic" result="result92"/>
      <feComposite in2="SourceAlpha" operator="in" result="result2"/>
    </filter>
  </defs>
  <g transform="translate(-336.29 -493.66)">
    <g transform="translate(1.1636 1.2696)">
      <text x="355.98264" y="531.79266" fill="url(#a)" font-family="StoneSerITCStd Medium" font-size="19.372px" letter-spacing="0px" word-spacing="0px" style="line-height:125%" xml:space="preserve"><tspan x="355.98264" y="531.79266" fill="url(#a)" font-size="2.9058px">Created by Falzar FZ</tspan></text>
      <path transform="matrix(1.0518 0 0 1.0562 335.55 492.59)" d="m72.952 36.456c0 20.103-16.365 36.4-36.552 36.4-20.187 0-36.552-16.297-36.552-36.4 0-20.103 16.365-36.4 36.552-36.4 20.187 0 36.552 16.297 36.552 36.4z" fill="url(#c)" stroke-miterlimit="4.1" stroke-width="0"/>
      <path transform="matrix(1.0518 0 0 1.0562 335.55 492.59)" d="m72.952 36.456a36.552 36.4 0 1 1-73.104 0 36.552 36.4 0 1 1 73.104 0z" fill="#666" filter="url(#e)" opacity=".12" stroke-miterlimit="4.1" stroke-width="0"/>
      <path d="m374.48 498.09c-6.2175 0.15003-12.543 1.46-17.794 4.9182-9.4919 5.9641-15.778 16.852-15.694 28.112-0.0951 4.5989 0.44192 9.2279 2.0419 13.561 3.123 9.0264 10.725 16.11 19.573 19.498 4.237 1.6499 8.8162 2.3255 13.36 2.0662 3.8939-3e-3 7.8064-0.47262 11.435-1.9498 7.4936-3.0519 14.075-8.5538 17.94-15.686 4.1706-8.0629 5.0102-17.775 2.5378-26.482-1.8913-6.4522-6.0163-12.034-10.939-16.53-6.0344-5.5005-14.424-7.6885-22.461-7.5082zm-0.99178 2.9102-8.5469 22.175-20.973 7.4791s0.0192-2.8105 0.11667-4.5398c2.1666-11.694 11.566-21.624 23.132-24.474 1.4504-0.25242 6.2716-0.64025 6.2716-0.64025zm3.2671 0.11641s2.7623 0.052 4.8714 0.17461h0.0291c6.4656 1.3553 12.419 4.7875 16.831 9.6908 3.8582 4.153 6.5332 9.3958 7.6718 14.958 0.30931 1.7402-0.0291 5.0346-0.0291 5.0346l-20.711-7.159zm-0.52506 10.156 6.68 13.183-6.6508 6.6352-0.0291-19.818zm-8.8969 13.154 6.68 6.6352-19.865 0.029 13.185-6.6642zm28.762 8.8468-13.853 5.329-6.0123-5.2999 19.865-0.029zm-22.082 0.029 0.0291 19.818-6.68-13.183 6.6508-6.6352zm-30.045 0.46562 21.061 6.6352 7.6134 22.321s-7.9826-0.68296-9.9762-1.5133c-8.9164-3.8051-15.841-11.825-18.202-21.215-0.18247-1.6738-0.4959-6.2277-0.4959-6.2277zm62.191 1.1932s0.32765 1.4686 0 3.4922c-1.1765 5.2772-3.5311 10.36-7.1758 14.405-4.4817 5.1681-10.71 8.9239-17.444 10.215-2.1938 0.0507-3.6754-0.17461-3.6754-0.17461l7.0008-22.728zm-31.519-37.61c-12.129 0.0669-23.861 7.0605-29.78 17.624-6.3508 10.939-5.9581 25.394 0.92797 35.998 4.0916 6.3545 10.271 11.378 17.405 13.932 7.1819 2.7528 15.265 2.8246 22.573 0.47992 9.5876-2.9676 17.594-10.432 21.533-19.628 3.6637-8.7544 3.6214-19.034-0.28546-27.703-4.9203-11.446-16.456-19.61-28.86-20.582-1.1683-0.0995-2.341-0.1412-3.5135-0.12121zm0.55487 4.106c10.183-0.10077 20.146 5.32 25.662 13.847 6.4825 9.6115 6.7371 22.967 0.62225 32.817-4.4531 7.3539-12.047 12.744-20.552 14.291-2.8238 0.4724-5.7323 0.58755-8.5875 0.43044-9.7482-0.82108-18.777-6.6954-23.7-15.077-3.092-5.1753-4.5147-11.26-4.1339-17.278 0.40469-11.3 7.7489-21.835 18.062-26.343 3.9489-1.7668 8.2898-2.6933 12.628-2.6876z" fill="#070506"/>
      <path d="m373.15 496.98c-6.2175 0.15003-12.543 1.46-17.794 4.9182-9.4919 5.9641-15.778 16.852-15.694 28.112-0.0951 4.5989 0.44192 9.2279 2.0419 13.561 3.123 9.0264 10.725 16.11 19.573 19.498 4.237 1.6499 8.8162 2.3255 13.36 2.0662 3.8939-3e-3 7.8064-0.47262 11.435-1.9498 7.4936-3.0519 14.075-8.5538 17.94-15.686 4.1706-8.0629 5.0102-17.775 2.5378-26.482-1.8913-6.4522-6.0163-12.034-10.939-16.53-6.0344-5.5005-14.424-7.6885-22.461-7.5082zm-0.99178 2.9102-8.5469 22.175-20.973 7.4791s0.0192-2.8105 0.11667-4.5398c2.1666-11.694 11.566-21.624 23.132-24.474 1.4504-0.25242 6.2716-0.64025 6.2716-0.64025zm3.2671 0.11641s2.7623 0.052 4.8714 0.17461h0.0291c6.4656 1.3553 12.419 4.7875 16.831 9.6908 3.8582 4.153 6.5332 9.3958 7.6718 14.958 0.30931 1.7402-0.0291 5.0346-0.0291 5.0346l-20.711-7.159zm-0.52506 5.2604 6.68 18.079-6.6508 6.6352-0.0291-24.714zm-7.5616 18.05 5.3447 6.6352-25.095 0.029 19.75-6.6642zm34.437 8.8468-20.496 5.0794-6.3787-5.0503 26.875-0.029zm-29.092 0.029 0.0291 25.382-6.3461-19.303 6.317-6.0788zm-30.045 0.46562 21.061 6.6352 7.6134 22.321s-7.9826-0.68296-9.9762-1.5133c-8.9164-3.8051-15.841-11.825-18.202-21.215-0.18247-1.6738-0.4959-6.2277-0.4959-6.2277zm62.191 1.1932s0.32765 1.4686 0 3.4922c-1.1765 5.2772-3.5311 10.36-7.1758 14.405-4.4817 5.1681-10.71 8.9239-17.444 10.215-2.1938 0.0507-3.6754-0.17461-3.6754-0.17461l7.0008-22.728zm-31.519-37.61c-12.129 0.0669-23.861 7.0605-29.78 17.624-6.3508 10.939-5.9581 25.394 0.92797 35.998 4.0916 6.3545 10.271 11.378 17.405 13.932 7.1819 2.7528 15.265 2.8246 22.573 0.47992 9.5876-2.9676 17.594-10.432 21.533-19.628 3.6637-8.7544 3.6214-19.034-0.28546-27.703-4.9203-11.446-16.456-19.61-28.86-20.582-1.1683-0.0995-2.341-0.1412-3.5135-0.12121zm0.55487 4.106c10.183-0.10077 20.146 5.32 25.662 13.847 6.4825 9.6115 6.7371 22.967 0.62225 32.817-4.4531 7.3539-12.047 12.744-20.552 14.291-2.8238 0.4724-5.7323 0.58755-8.5875 0.43044-9.7482-0.82108-18.777-6.6954-23.7-15.077-3.092-5.1753-4.5147-11.26-4.1339-17.278 0.40469-11.3 7.7489-21.835 18.062-26.343 3.9489-1.7668 8.2898-2.6933 12.628-2.6876z" fill="url(#b)"/>
      <path d="m373.15 496.98c-6.2175 0.15003-12.543 1.46-17.794 4.9182-9.4919 5.9641-15.778 16.852-15.694 28.112-0.0951 4.5989 0.44192 9.2279 2.0419 13.561 3.123 9.0264 10.725 16.11 19.573 19.498 4.237 1.6499 8.8162 2.3255 13.36 2.0662 3.8939-3e-3 7.8064-0.47262 11.435-1.9498 7.4936-3.0519 14.075-8.5538 17.94-15.686 4.1706-8.0629 5.0102-17.775 2.5378-26.482-1.8913-6.4522-6.0163-12.034-10.939-16.53-6.0344-5.5005-14.424-7.6885-22.461-7.5082zm-0.99178 2.9102-8.5469 22.175-20.973 7.4791s0.0192-2.8105 0.11667-4.5398c2.1666-11.694 11.566-21.624 23.132-24.474 1.4504-0.25242 6.2716-0.64025 6.2716-0.64025zm3.2671 0.11641s2.7623 0.052 4.8714 0.17461h0.0291c6.4656 1.3553 12.419 4.7875 16.831 9.6908 3.8582 4.153 6.5332 9.3958 7.6718 14.958 0.30931 1.7402-0.0291 5.0346-0.0291 5.0346l-20.711-7.159-8.6636-22.699zm-0.52506 10.156 6.68 13.183-6.6508 6.6352-0.0291-19.818zm-8.8969 13.154 6.68 6.6352-19.865 0.029 13.185-6.6642zm28.762 8.8468-13.185 6.6643-6.68-6.6352 19.865-0.029zm-22.082 0.029 0.0291 19.818-6.68-13.183 6.6508-6.6352zm-30.045 0.46562 21.061 6.6352 7.6134 22.321s-7.9826-0.68296-9.9762-1.5133c-8.9164-3.8051-15.841-11.825-18.202-21.215-0.18247-1.6738-0.4959-6.2277-0.4959-6.2277zm62.191 1.1932s0.32765 1.4686 0 3.4922c-1.1765 5.2772-3.5311 10.36-7.1758 14.405-4.4817 5.1681-10.71 8.9239-17.444 10.215-2.1938 0.0507-3.6754-0.17461-3.6754-0.17461l7.0008-22.728 21.294-5.2092zm-31.519-37.61c-12.129 0.0669-23.861 7.0605-29.78 17.624-6.3508 10.939-5.9581 25.394 0.92797 35.998 4.0916 6.3545 10.271 11.378 17.405 13.932 7.1819 2.7528 15.265 2.8246 22.573 0.47992 9.5876-2.9676 17.594-10.432 21.533-19.628 3.6637-8.7544 3.6214-19.034-0.28546-27.703-4.9203-11.446-16.456-19.61-28.86-20.582-1.1683-0.0995-2.341-0.1412-3.5135-0.12121zm0.55487 4.106c10.183-0.10077 20.146 5.32 25.662 13.847 6.4825 9.6115 6.7371 22.967 0.62225 32.817-4.4531 7.3539-12.047 12.744-20.552 14.291-2.8238 0.4724-5.7323 0.58755-8.5875 0.43044-9.7482-0.82108-18.777-6.6954-23.7-15.077-3.092-5.1753-4.5147-11.26-4.1339-17.278 0.40469-11.3 7.7489-21.835 18.062-26.343 3.9489-1.7668 8.2898-2.6933 12.628-2.6876z" fill="#4d4d4d" filter="url(#d)" opacity=".11"/>
    </g>
  </g>
</svg>
