<?xml version="1.0" encoding="UTF-8"?>
<svg version="1.1" viewBox="0 0 77.38 77.407" xmlns="http://www.w3.org/2000/svg">
  <defs>
    <linearGradient id="c" x1="58.993" x2="17.057" y1="11.446" y2="64.836" gradientUnits="userSpaceOnUse">
      <stop stop-color="#281f18" offset="0"/>
      <stop stop-color="#101010" offset=".1748"/>
      <stop stop-color="#14181c" offset=".34537"/>
      <stop stop-color="#49382b" offset=".5351"/>
      <stop stop-color="#312318" offset=".7131"/>
      <stop stop-color="#3d291d" offset=".81674"/>
      <stop stop-color="#1d1f21" offset="1"/>
    </linearGradient>
    <filter id="e" x="0" y="0" width="1" height="1" color-interpolation-filters="sRGB">
      <feTurbulence baseFrequency="0.037" numOctaves="3" result="result0"/>
      <feSpecularLighting result="result1" specularExponent="24.29999924" surfaceScale="2">
        <feDistantLight azimuth="225" elevation="45"/>
      </feSpecularLighting>
      <feDiffuseLighting diffuseConstant="1.21000004" in="result0" result="result2" surfaceScale="3">
        <feDistantLight azimuth="225" elevation="42"/>
      </feDiffuseLighting>
      <feBlend in2="SourceGraphic" mode="multiply" result="result91"/>
      <feComposite in="result1" in2="result91" k2="1" k3="1" operator="arithmetic" result="result92"/>
      <feComposite in2="SourceAlpha" operator="in" result="result2"/>
    </filter>
    <linearGradient id="b" x1="61.45" x2="13.028" y1="66.66" y2="2.6565" gradientTransform="matrix(.99945 0 0 .97706 337.25 494.06)" gradientUnits="userSpaceOnUse">
      <stop stop-color="#eaeaeb" offset="0"/>
      <stop stop-color="#a3a3a3" offset=".36351"/>
      <stop stop-color="#dad9d9" offset=".62875"/>
      <stop stop-color="#979797" offset=".75561"/>
      <stop stop-color="#858585" offset=".79465"/>
      <stop stop-color="#f0f3f5" offset=".88529"/>
      <stop stop-color="#a4a4a4" offset="1"/>
    </linearGradient>
    <filter id="d" x="0" y="0" width="1" height="1" color-interpolation-filters="sRGB">
      <feTurbulence baseFrequency="0.037" numOctaves="3" result="result0"/>
      <feSpecularLighting result="result1" specularExponent="24.29999924" surfaceScale="2">
        <feDistantLight azimuth="225" elevation="45"/>
      </feSpecularLighting>
      <feDiffuseLighting diffuseConstant="1.21000004" in="result0" result="result2" surfaceScale="3">
        <feDistantLight azimuth="225" elevation="42"/>
      </feDiffuseLighting>
      <feBlend in2="SourceGraphic" mode="multiply" result="result91"/>
      <feComposite in="result1" in2="result91" k2="1" k3="1" operator="arithmetic" result="result92"/>
      <feComposite in2="SourceAlpha" operator="in" result="result2"/>
    </filter>
    <linearGradient id="a" x1="143.5" x2="106.25" y1="22.902" y2="22.402" gradientTransform="matrix(.4843 0 0 .4843 311.26 521.37)" gradientUnits="userSpaceOnUse">
      <stop stop-color="#f00" offset="0"/>
      <stop stop-color="#f60" offset="1"/>
    </linearGradient>
  </defs>
  <g transform="translate(-336.32 -493.66)">
    <text x="357.14621" y="533.06232" fill="url(#a)" font-family="StoneSerITCStd Medium" font-size="19.372px" letter-spacing="0px" word-spacing="0px" style="line-height:125%" xml:space="preserve"><tspan x="357.14621" y="533.06232" fill="url(#a)" font-size="2.9058px">Created by Falzar FZ</tspan></text>
    <path transform="matrix(1.0518 0 0 1.0562 336.71 493.86)" d="m72.952 36.456c0 20.103-16.365 36.4-36.552 36.4-20.187 0-36.552-16.297-36.552-36.4 0-20.103 16.365-36.4 36.552-36.4 20.187 0 36.552 16.297 36.552 36.4z" fill="url(#c)" stroke-miterlimit="4.1" stroke-width="0"/>
    <path transform="matrix(1.0518 0 0 1.0562 336.71 493.86)" d="m72.952 36.456c0 20.103-16.365 36.4-36.552 36.4-20.187 0-36.552-16.297-36.552-36.4 0-20.103 16.365-36.4 36.552-36.4 20.187 0 36.552 16.297 36.552 36.4z" fill="#666" filter="url(#e)" opacity=".1" stroke-miterlimit="4.1" stroke-width="0"/>
    <path d="m366.3 505.68s3.0845 5.3448 3.7594 11.449c0.5454 4.9322-0.91945 10.36-3.4471 13.864-5.3802-3.0383-6.2153-9.0684-6.2153-9.0684s-13.171 12.638-2.0292 27.415c3.9323 0.8636 9.0972 1.3699 12.684 0.93968-2.0224-6.1319 3.7743-16.294 3.7743-16.294s2.7622 9.9878 6.7151 6.6257c1.1281 3.3651-1.633 3.859 1.5616 9.618-19.738 2.3098-32.305-1.4317-32.305-1.4317s8.9458 14.315 26.26 14.48c19.133-1.462 26.013-16.78 26.013-16.78s-7.6159 4.3251-17.407 3.6701c2.0621-0.69173 10.935 0.76695 12.868-10.931 2.3811-15.038-10.564-24.732-10.564-24.732s2.4626 6.6714-0.20304 11.401c-7.0034-23.057-21.465-20.225-21.465-20.225zm9.4297-7.1569c-12.129 0.0669-23.861 7.0605-29.78 17.624-6.3508 10.939-5.9581 25.394 0.92797 35.998 4.0916 6.3545 10.271 11.378 17.405 13.932 7.1819 2.7528 15.265 2.8246 22.573 0.47992 9.5876-2.9676 17.594-10.432 21.533-19.628 3.6637-8.7544 3.6214-19.034-0.28546-27.703-4.9203-11.446-16.456-19.61-28.86-20.582-1.1683-0.0995-2.341-0.1412-3.5135-0.12121zm0.55487 4.106c10.183-0.10077 20.146 5.32 25.662 13.847 6.4825 9.6115 6.7371 22.967 0.62225 32.817-4.4531 7.3539-12.047 12.744-20.552 14.291-2.8238 0.4724-5.7323 0.58755-8.5875 0.43044-9.7482-0.82108-18.777-6.6954-23.7-15.077-3.092-5.1753-4.5147-11.26-4.1339-17.278 0.40469-11.3 7.7489-21.835 18.062-26.343 3.9489-1.7668 8.2898-2.6933 12.628-2.6876z" fill="#070506"/>
    <path d="m365.04 504.67s3.0845 5.3448 3.7594 11.449c0.54539 4.9322-0.91945 10.36-3.4471 13.864-5.3802-3.0383-6.2153-9.0684-6.2153-9.0684s-13.171 12.638-2.0292 27.415c3.9323 0.8636 9.0972 1.3699 12.684 0.93968-2.0224-6.1319 3.7743-16.294 3.7743-16.294s2.7622 9.9878 6.7151 6.6257c1.1281 3.3651-1.633 3.859 1.5616 9.618-19.738 2.3098-32.305-1.4317-32.305-1.4317s7.7603 12.418 22.814 14.256c1.109 0.13537-4.037 3.0852 3.3276 2.1523 7.6257 0.27967 3.0208-2.239 4.3635-2.5068 15.917-3.1736 21.767-16.201 21.767-16.201s-7.6159 4.3251-17.407 3.6701c2.0621-0.69173 10.935 0.76695 12.868-10.931 2.3811-15.038-10.564-24.732-10.564-24.732s2.4626 6.6714-0.20304 11.401c-7.0034-23.057-21.465-20.225-21.465-20.225zm9.4297-7.1569c-12.129 0.0669-23.861 7.0605-29.78 17.624-6.3508 10.939-5.9581 25.394 0.92797 35.998 4.0916 6.3545 10.271 11.378 17.405 13.932 7.1819 2.7528 15.265 2.8246 22.573 0.47992 9.5876-2.9676 17.594-10.432 21.533-19.628 3.6637-8.7544 3.6214-19.034-0.28546-27.703-4.9203-11.446-16.456-19.61-28.86-20.582-1.1683-0.0995-2.341-0.1412-3.5135-0.12121zm0.55487 4.106c10.183-0.10077 20.146 5.32 25.662 13.847 6.4825 9.6115 6.7371 22.967 0.62225 32.817-4.4531 7.3539-12.047 12.744-20.552 14.291-2.8238 0.4724-5.7323 0.58755-8.5875 0.43044-9.7482-0.82108-18.777-6.6954-23.7-15.077-3.092-5.1753-4.5147-11.26-4.1339-17.278 0.40469-11.3 7.7489-21.835 18.062-26.343 3.9489-1.7668 8.2898-2.6933 12.628-2.6876z" fill="url(#b)"/>
    <path d="m365.04 504.67s3.0845 5.3448 3.7594 11.449c0.54539 4.9322-0.91945 10.36-3.4471 13.864-5.3802-3.0383-6.2153-9.0684-6.2153-9.0684s-13.171 12.638-2.0292 27.415c3.9323 0.8636 9.0972 1.3699 12.684 0.93968-2.0224-6.1319 3.7743-16.294 3.7743-16.294s2.7622 9.9878 6.7151 6.6257c1.1281 3.3651-1.633 3.859 1.5616 9.618-19.738 2.3098-32.305-1.4317-32.305-1.4317s7.7603 12.418 22.814 14.256c1.109 0.13537-4.037 3.0852 3.3276 2.1523 7.6257 0.27967 3.0208-2.239 4.3635-2.5068 15.917-3.1736 21.767-16.201 21.767-16.201s-7.6159 4.3251-17.407 3.6701c2.0621-0.69173 10.935 0.76695 12.868-10.931 2.3811-15.038-10.564-24.732-10.564-24.732s2.4626 6.6714-0.20304 11.401c-7.0034-23.057-21.465-20.225-21.465-20.225zm9.4297-7.1569c-12.129 0.0669-23.861 7.0605-29.78 17.624-6.3508 10.939-5.9581 25.394 0.92797 35.998 4.0916 6.3545 10.271 11.378 17.405 13.932 7.1819 2.7528 15.265 2.8246 22.573 0.47992 9.5876-2.9676 17.594-10.432 21.533-19.628 3.6637-8.7544 3.6214-19.034-0.28546-27.703-4.9203-11.446-16.456-19.61-28.86-20.582-1.1683-0.0995-2.341-0.1412-3.5135-0.12121zm0.55487 4.106c10.183-0.10077 20.146 5.32 25.662 13.847 6.4825 9.6115 6.7371 22.967 0.62225 32.817-4.4531 7.3539-12.047 12.744-20.552 14.291-2.8238 0.4724-5.7323 0.58755-8.5875 0.43044-9.7482-0.82108-18.777-6.6954-23.7-15.077-3.092-5.1753-4.5147-11.26-4.1339-17.278 0.40469-11.3 7.7489-21.835 18.062-26.343 3.9489-1.7668 8.2898-2.6933 12.628-2.6876z" fill="#666" filter="url(#d)" opacity=".07"/>
  </g>
</svg>
